<?xml version="1.0" encoding="UTF-8" standalone="no"?>
<!DOCTYPE svg PUBLIC "-//W3C//DTD SVG 1.1//EN"
 "http://www.w3.org/Graphics/SVG/1.1/DTD/svg11.dtd">
<!-- Generated by graphviz version 2.47.0 (20210316.0004)
 -->
<!-- Title: dependencies Pages: 1 -->
<svg width="504pt" height="211pt"
 viewBox="0.00 0.00 504.00 211.00" xmlns="http://www.w3.org/2000/svg" xmlns:xlink="http://www.w3.org/1999/xlink">
<g id="graph0" class="graph" transform="scale(1 1) rotate(0) translate(4 207)">
<title>dependencies</title>
<polygon fill="white" stroke="transparent" points="-4,4 -4,-207 500,-207 500,4 -4,4"/>
<text text-anchor="start" x="227.01" y="-42.4" font-family="Times-12" font-weight="bold" font-size="14.00">Legend</text>
<polygon fill="#ffffb3" stroke="transparent" points="14,-10 14,-30 34,-30 34,-10 14,-10"/>
<text text-anchor="start" x="37.63" y="-15.4" font-family="Times-12" font-size="14.00"> &#160;Declarations</text>
<polygon fill="#8dd3c7" stroke="transparent" points="127,-10 127,-30 147,-30 147,-10 127,-10"/>
<text text-anchor="start" x="150.73" y="-15.4" font-family="Times-12" font-size="14.00"> &#160;Module</text>
<polygon fill="#80b1d3" stroke="transparent" points="213,-10 213,-30 233,-30 233,-10 213,-10"/>
<text text-anchor="start" x="236.78" y="-15.4" font-family="Times-12" font-size="14.00"> &#160;Bootstrap</text>
<polygon fill="#fdb462" stroke="transparent" points="310,-10 310,-30 330,-30 330,-10 310,-10"/>
<text text-anchor="start" x="333.67" y="-15.4" font-family="Times-12" font-size="14.00"> &#160;Providers</text>
<polygon fill="#fb8072" stroke="transparent" points="406,-10 406,-30 426,-30 426,-10 406,-10"/>
<text text-anchor="start" x="429.73" y="-15.4" font-family="Times-12" font-size="14.00"> &#160;Exports</text>
<g id="clust1" class="cluster">
<title>cluster_FormulariosPageModule</title>
<polygon fill="none" stroke="black" stroke-dasharray="1,5" points="64,-70 64,-195 432,-195 432,-70 64,-70"/>
</g>
<g id="clust2" class="cluster">
<title>cluster_FormulariosPageModule_declarations</title>
<polygon fill="none" stroke="black" points="296,-78 296,-130 424,-130 424,-78 296,-78"/>
</g>
<g id="clust4" class="cluster">
<title>cluster_FormulariosPageModule_imports</title>
<polygon fill="none" stroke="black" points="72,-78 72,-130 288,-130 288,-78 72,-78"/>
</g>
<!-- FormulariosPage -->
<g id="node1" class="node">
<title>FormulariosPage</title>
<polygon fill="#ffffb3" stroke="black" points="415.65,-122 304.35,-122 304.35,-86 415.65,-86 415.65,-122"/>
<text text-anchor="middle" x="360" y="-99.8" font-family="Times,serif" font-size="14.00">FormulariosPage</text>
</g>
<!-- FormulariosPageModule -->
<g id="node2" class="node">
<title>FormulariosPageModule</title>
<polygon fill="#8dd3c7" stroke="black" points="340.7,-187 337.7,-191 316.7,-191 313.7,-187 185.3,-187 185.3,-151 340.7,-151 340.7,-187"/>
<text text-anchor="middle" x="263" y="-164.8" font-family="Times,serif" font-size="14.00">FormulariosPageModule</text>
</g>
<!-- FormulariosPage&#45;&gt;FormulariosPageModule -->
<g id="edge1" class="edge">
<title>FormulariosPage&#45;&gt;FormulariosPageModule</title>
<path fill="none" stroke="black" d="M322.39,-122.11C322.39,-122.11 322.39,-140.99 322.39,-140.99"/>
<polygon fill="black" stroke="black" points="318.89,-140.99 322.39,-150.99 325.89,-140.99 318.89,-140.99"/>
</g>
<!-- FormulariosPageRoutingModule -->
<g id="node3" class="node">
<title>FormulariosPageRoutingModule</title>
<polygon fill="#8dd3c7" stroke="black" points="280.31,-122 277.31,-126 256.31,-126 253.31,-122 79.69,-122 79.69,-86 280.31,-86 280.31,-122"/>
<text text-anchor="middle" x="180" y="-99.8" font-family="Times,serif" font-size="14.00">FormulariosPageRoutingModule</text>
</g>
<!-- FormulariosPageRoutingModule&#45;&gt;FormulariosPageModule -->
<g id="edge2" class="edge">
<title>FormulariosPageRoutingModule&#45;&gt;FormulariosPageModule</title>
<path fill="none" stroke="black" d="M232.78,-122.11C232.78,-122.11 232.78,-140.99 232.78,-140.99"/>
<polygon fill="black" stroke="black" points="229.28,-140.99 232.78,-150.99 236.28,-140.99 229.28,-140.99"/>
</g>
</g>
</svg>
