<?xml version="1.0" encoding="UTF-8" standalone="no"?>
<!DOCTYPE svg PUBLIC "-//W3C//DTD SVG 1.1//EN"
 "http://www.w3.org/Graphics/SVG/1.1/DTD/svg11.dtd">
<!-- Generated by graphviz version 2.47.0 (20210316.0004)
 -->
<!-- Title: dependencies Pages: 1 -->
<svg width="522pt" height="211pt"
 viewBox="0.00 0.00 522.00 211.00" xmlns="http://www.w3.org/2000/svg" xmlns:xlink="http://www.w3.org/1999/xlink">
<g id="graph0" class="graph" transform="scale(1 1) rotate(0) translate(4 207)">
<title>dependencies</title>
<polygon fill="white" stroke="transparent" points="-4,4 -4,-207 518,-207 518,4 -4,4"/>
<text text-anchor="start" x="236.01" y="-42.4" font-family="Times-12" font-weight="bold" font-size="14.00">Legend</text>
<polygon fill="#ffffb3" stroke="transparent" points="23,-10 23,-30 43,-30 43,-10 23,-10"/>
<text text-anchor="start" x="46.63" y="-15.4" font-family="Times-12" font-size="14.00"> &#160;Declarations</text>
<polygon fill="#8dd3c7" stroke="transparent" points="136,-10 136,-30 156,-30 156,-10 136,-10"/>
<text text-anchor="start" x="159.73" y="-15.4" font-family="Times-12" font-size="14.00"> &#160;Module</text>
<polygon fill="#80b1d3" stroke="transparent" points="222,-10 222,-30 242,-30 242,-10 222,-10"/>
<text text-anchor="start" x="245.78" y="-15.4" font-family="Times-12" font-size="14.00"> &#160;Bootstrap</text>
<polygon fill="#fdb462" stroke="transparent" points="319,-10 319,-30 339,-30 339,-10 319,-10"/>
<text text-anchor="start" x="342.67" y="-15.4" font-family="Times-12" font-size="14.00"> &#160;Providers</text>
<polygon fill="#fb8072" stroke="transparent" points="415,-10 415,-30 435,-30 435,-10 415,-10"/>
<text text-anchor="start" x="438.73" y="-15.4" font-family="Times-12" font-size="14.00"> &#160;Exports</text>
<g id="clust1" class="cluster">
<title>cluster_SegmentoCinformacionPageModule</title>
<polygon fill="none" stroke="black" stroke-dasharray="1,5" points="8,-70 8,-195 506,-195 506,-70 8,-70"/>
</g>
<g id="clust2" class="cluster">
<title>cluster_SegmentoCinformacionPageModule_declarations</title>
<polygon fill="none" stroke="black" points="306,-78 306,-130 498,-130 498,-78 306,-78"/>
</g>
<g id="clust4" class="cluster">
<title>cluster_SegmentoCinformacionPageModule_imports</title>
<polygon fill="none" stroke="black" points="16,-78 16,-130 298,-130 298,-78 16,-78"/>
</g>
<!-- SegmentoCinformacionPage -->
<g id="node1" class="node">
<title>SegmentoCinformacionPage</title>
<polygon fill="#ffffb3" stroke="black" points="490.46,-122 313.54,-122 313.54,-86 490.46,-86 490.46,-122"/>
<text text-anchor="middle" x="402" y="-99.8" font-family="Times,serif" font-size="14.00">SegmentoCinformacionPage</text>
</g>
<!-- SegmentoCinformacionPageModule -->
<g id="node2" class="node">
<title>SegmentoCinformacionPageModule</title>
<polygon fill="#8dd3c7" stroke="black" points="382.01,-187 379.01,-191 358.01,-191 355.01,-187 161.99,-187 161.99,-151 382.01,-151 382.01,-187"/>
<text text-anchor="middle" x="272" y="-164.8" font-family="Times,serif" font-size="14.00">SegmentoCinformacionPageModule</text>
</g>
<!-- SegmentoCinformacionPage&#45;&gt;SegmentoCinformacionPageModule -->
<g id="edge1" class="edge">
<title>SegmentoCinformacionPage&#45;&gt;SegmentoCinformacionPageModule</title>
<path fill="none" stroke="black" d="M347.89,-122.11C347.89,-122.11 347.89,-140.99 347.89,-140.99"/>
<polygon fill="black" stroke="black" points="344.39,-140.99 347.89,-150.99 351.39,-140.99 344.39,-140.99"/>
</g>
<!-- SegmentoCinformacionPageRoutingModule -->
<g id="node3" class="node">
<title>SegmentoCinformacionPageRoutingModule</title>
<polygon fill="#8dd3c7" stroke="black" points="289.63,-122 286.63,-126 265.63,-126 262.63,-122 24.37,-122 24.37,-86 289.63,-86 289.63,-122"/>
<text text-anchor="middle" x="157" y="-99.8" font-family="Times,serif" font-size="14.00">SegmentoCinformacionPageRoutingModule</text>
</g>
<!-- SegmentoCinformacionPageRoutingModule&#45;&gt;SegmentoCinformacionPageModule -->
<g id="edge2" class="edge">
<title>SegmentoCinformacionPageRoutingModule&#45;&gt;SegmentoCinformacionPageModule</title>
<path fill="none" stroke="black" d="M225.78,-122.11C225.78,-122.11 225.78,-140.99 225.78,-140.99"/>
<polygon fill="black" stroke="black" points="222.28,-140.99 225.78,-150.99 229.28,-140.99 222.28,-140.99"/>
</g>
</g>
</svg>
