<?xml version="1.0" encoding="UTF-8" standalone="no"?>
<!DOCTYPE svg PUBLIC "-//W3C//DTD SVG 1.1//EN"
 "http://www.w3.org/Graphics/SVG/1.1/DTD/svg11.dtd">
<!-- Generated by graphviz version 2.47.0 (20210316.0004)
 -->
<!-- Title: dependencies Pages: 1 -->
<svg width="504pt" height="211pt"
 viewBox="0.00 0.00 504.00 211.00" xmlns="http://www.w3.org/2000/svg" xmlns:xlink="http://www.w3.org/1999/xlink">
<g id="graph0" class="graph" transform="scale(1 1) rotate(0) translate(4 207)">
<title>dependencies</title>
<polygon fill="white" stroke="transparent" points="-4,4 -4,-207 500,-207 500,4 -4,4"/>
<text text-anchor="start" x="227.01" y="-42.4" font-family="Times-12" font-weight="bold" font-size="14.00">Legend</text>
<polygon fill="#ffffb3" stroke="transparent" points="14,-10 14,-30 34,-30 34,-10 14,-10"/>
<text text-anchor="start" x="37.63" y="-15.4" font-family="Times-12" font-size="14.00"> &#160;Declarations</text>
<polygon fill="#8dd3c7" stroke="transparent" points="127,-10 127,-30 147,-30 147,-10 127,-10"/>
<text text-anchor="start" x="150.73" y="-15.4" font-family="Times-12" font-size="14.00"> &#160;Module</text>
<polygon fill="#80b1d3" stroke="transparent" points="213,-10 213,-30 233,-30 233,-10 213,-10"/>
<text text-anchor="start" x="236.78" y="-15.4" font-family="Times-12" font-size="14.00"> &#160;Bootstrap</text>
<polygon fill="#fdb462" stroke="transparent" points="310,-10 310,-30 330,-30 330,-10 310,-10"/>
<text text-anchor="start" x="333.67" y="-15.4" font-family="Times-12" font-size="14.00"> &#160;Providers</text>
<polygon fill="#fb8072" stroke="transparent" points="406,-10 406,-30 426,-30 426,-10 406,-10"/>
<text text-anchor="start" x="429.73" y="-15.4" font-family="Times-12" font-size="14.00"> &#160;Exports</text>
<g id="clust1" class="cluster">
<title>cluster_LoginPageModule</title>
<polygon fill="none" stroke="black" stroke-dasharray="1,5" points="10,-70 10,-195 486,-195 486,-70 10,-70"/>
</g>
<g id="clust5" class="cluster">
<title>cluster_LoginPageModule_imports</title>
<polygon fill="none" stroke="black" points="296,-78 296,-130 478,-130 478,-78 296,-78"/>
</g>
<g id="clust2" class="cluster">
<title>cluster_LoginPageModule_declarations</title>
<polygon fill="none" stroke="black" points="18,-78 18,-130 288,-130 288,-78 18,-78"/>
</g>
<!-- ErrorMessageComponent -->
<g id="node1" class="node">
<title>ErrorMessageComponent</title>
<polygon fill="#ffffb3" stroke="black" points="279.84,-122 120.16,-122 120.16,-86 279.84,-86 279.84,-122"/>
<text text-anchor="middle" x="200" y="-99.8" font-family="Times,serif" font-size="14.00">ErrorMessageComponent</text>
</g>
<!-- LoginPageModule -->
<g id="node3" class="node">
<title>LoginPageModule</title>
<polygon fill="#8dd3c7" stroke="black" points="260.2,-187 257.2,-191 236.2,-191 233.2,-187 139.8,-187 139.8,-151 260.2,-151 260.2,-187"/>
<text text-anchor="middle" x="200" y="-164.8" font-family="Times,serif" font-size="14.00">LoginPageModule</text>
</g>
<!-- ErrorMessageComponent&#45;&gt;LoginPageModule -->
<g id="edge1" class="edge">
<title>ErrorMessageComponent&#45;&gt;LoginPageModule</title>
<path fill="none" stroke="black" d="M200,-122.11C200,-122.11 200,-140.99 200,-140.99"/>
<polygon fill="black" stroke="black" points="196.5,-140.99 200,-150.99 203.5,-140.99 196.5,-140.99"/>
</g>
<!-- LoginPage -->
<g id="node2" class="node">
<title>LoginPage</title>
<polygon fill="#ffffb3" stroke="black" points="102.16,-122 25.84,-122 25.84,-86 102.16,-86 102.16,-122"/>
<text text-anchor="middle" x="64" y="-99.8" font-family="Times,serif" font-size="14.00">LoginPage</text>
</g>
<!-- LoginPage&#45;&gt;LoginPageModule -->
<g id="edge2" class="edge">
<title>LoginPage&#45;&gt;LoginPageModule</title>
<path fill="none" stroke="black" d="M64,-122.11C64,-141.34 64,-169 64,-169 64,-169 129.56,-169 129.56,-169"/>
<polygon fill="black" stroke="black" points="129.56,-172.5 139.56,-169 129.56,-165.5 129.56,-172.5"/>
</g>
<!-- LoginPageRoutingModule -->
<g id="node4" class="node">
<title>LoginPageRoutingModule</title>
<polygon fill="#8dd3c7" stroke="black" points="469.82,-122 466.82,-126 445.82,-126 442.82,-122 304.18,-122 304.18,-86 469.82,-86 469.82,-122"/>
<text text-anchor="middle" x="387" y="-99.8" font-family="Times,serif" font-size="14.00">LoginPageRoutingModule</text>
</g>
<!-- LoginPageRoutingModule&#45;&gt;LoginPageModule -->
<g id="edge3" class="edge">
<title>LoginPageRoutingModule&#45;&gt;LoginPageModule</title>
<path fill="none" stroke="black" d="M387,-122.11C387,-141.34 387,-169 387,-169 387,-169 270.2,-169 270.2,-169"/>
<polygon fill="black" stroke="black" points="270.2,-165.5 260.2,-169 270.2,-172.5 270.2,-165.5"/>
</g>
</g>
</svg>
