<?xml version="1.0" encoding="iso-8859-1"?>
<!-- Generator: Adobe Illustrator 16.0.0, SVG Export Plug-In . SVG Version: 6.00 Build 0)  -->
<!DOCTYPE svg PUBLIC "-//W3C//DTD SVG 1.1//EN" "http://www.w3.org/Graphics/SVG/1.1/DTD/svg11.dtd">
<svg version="1.1" id="Capa_1" xmlns="http://www.w3.org/2000/svg" xmlns:xlink="http://www.w3.org/1999/xlink" x="0px" y="0px"
	 width="800px" height="800px" viewBox="0 0 800 800" style="enable-background:new 0 0 800 800;" xml:space="preserve">
<g>
	<path d="M315.257,84.744c0-46.81,38.201-84.744,85.31-84.744c47.108,0,85.33,37.934,85.33,84.744
		c0,46.852-38.222,84.764-85.33,84.764C353.458,169.508,315.257,131.596,315.257,84.744z M770.684,698.87l-76.576,36.784
		c-12.442,5.989-22.594,2.344-22.594-8.073v-16.493h-75.509c-7.356,33.812-48.614,62.458-106.462,77.562
		C460.445,796.244,431.193,800,401.2,800c-0.219,0-0.415-0.021-1.771-0.021c-0.216,0-0.414,0.021-0.63,0.021
		c-29.994,0-59.246-3.756-88.346-11.352c-57.846-15.104-99.105-43.749-106.461-77.562h-75.507v16.493
		c0,10.417-10.151,14.062-22.594,8.073L29.315,698.87c-12.421-5.923-12.421-15.689,0-21.681l76.577-36.761
		c12.443-5.969,22.594-2.321,22.594,8.071v15.301h88.146c17.137-21.767,49.247-39.691,89.894-50.891l13.862-194.791
		c0.087-1.042,0.371-1.997,0.524-3.038c2.445-56.184,5.149-111.198,6.701-141.536c-21.371,28.949-34.404,77.561-37.721,142.729
		c-0.786,15.992-14.103,28.405-30.038,28.405c-0.481,0-1.003,0-1.527-0.043c-16.613-0.825-29.384-14.886-28.53-31.381
		c2.814-54.926,10.76-113.628,39.837-161.631c6.832-11.284,14.799-21.7,24.187-31.033c10.435-10.374,22.595-19.899,35.518-27.105
		c5.587-3.104,11.503-5.619,17.527-7.683c14.714-5.011,30.258-7.442,45.756-7.963L365.03,407.873l34.97,35.66l34.97-35.658
		l-27.591-230.032c15.803,0.543,31.673,3.038,46.604,8.269c6.024,2.103,11.919,4.665,17.464,7.833
		c9.999,5.686,19.776,13.107,28.379,20.704c42.5,37.413,65.529,102.386,70.377,198.609c0.852,16.495-11.92,30.557-28.531,31.381
		c-0.523,0.043-1.048,0.043-1.527,0.043c-15.938,0-29.252-12.413-30.036-28.405c-3.319-65.169-16.351-113.78-37.723-142.729
		c1.55,30.338,4.257,85.353,6.702,141.536c0.152,1.041,0.438,1.996,0.524,3.038l13.86,194.791
		c40.646,11.198,72.758,29.124,89.893,50.891h88.147v-15.301c0-10.394,10.15-14.04,22.594-8.071l76.576,36.761
		C783.105,683.181,783.105,692.947,770.684,698.87z M304.978,634.57c-24.604,7.683-57.369,20.854-57.369,48.696
		c0,18.488,19.56,35.092,50.579,46.658L304.978,634.57z M385.591,601.279c4.41-0.219,8.884-0.823,13.209-0.868v-0.087
		c0.216,0,0.438,0.043,0.63,0.043c0.155,0,0.33,0,0.505-0.021v-0.021c0.021,0,0.043,0,0.064,0c0.022,0,0.043,0,0.065,0v0.021
		c0.175,0.021,0.349,0.021,0.502,0.021c0.195,0,0.414-0.043,0.633-0.043v0.087c4.345,0.045,8.797,0.649,13.208,0.868l-7.553-105.816
		c-2.403-0.65-4.694-1.085-6.856-1.258c-2.16,0.173-4.454,0.606-6.854,1.258L385.591,601.279z M424.666,745.594l-8.883-124.738
		c-5.065-0.262-10.151-0.521-15.216-0.586v0.042c-0.177,0-0.369-0.021-0.567-0.021c-0.197,0-0.394,0.021-0.569,0.021v-0.042
		c-5.062,0.064-10.149,0.324-15.214,0.586l-8.885,124.738c7.859,0.563,15.87,0.998,24.099,1.085v-0.043c0.198,0,0.396,0,0.569,0
		c0.176,0,0.372,0,0.567,0v0.043C408.796,746.592,416.809,746.157,424.666,745.594z M552.39,683.268
		c0-27.843-32.766-41.015-57.366-48.696l6.79,95.354C532.831,718.358,552.39,701.756,552.39,683.268z"/>
</g>
<g>
</g>
<g>
</g>
<g>
</g>
<g>
</g>
<g>
</g>
<g>
</g>
<g>
</g>
<g>
</g>
<g>
</g>
<g>
</g>
<g>
</g>
<g>
</g>
<g>
</g>
<g>
</g>
<g>
</g>
</svg>
