<?xml version="1.0" encoding="UTF-8"?>
<svg xmlns="http://www.w3.org/2000/svg" id="Layer_3" data-name="Layer 3" viewBox="0 0 64 64" width="512" height="512"><path d="M22.945,35.627c0,.011,0,.023,0,.034l.4.792a.985.985,0,0,0,.884.547A1.772,1.772,0,0,0,26,35.229a1.794,1.794,0,0,0-.024-.291,29.606,29.606,0,0,0-3.526-9.882A3,3,0,0,0,20,28v.632a10.294,10.294,0,0,1,2.535,4.945Z"/><path d="M48.75,23a1.256,1.256,0,0,0-.749.25,13.527,13.527,0,0,0-4.557,6.081l-1.007,2.685a3.122,3.122,0,0,1-5.854-.106A11.111,11.111,0,0,1,36,28.359V26a5.006,5.006,0,0,0-5-5,1,1,0,0,0-1,1V33.5a1.5,1.5,0,0,0,3,0V24h2v9.5a3.5,3.5,0,0,1-7,0V22a3,3,0,0,1,1.954-2.8l-.81-14.6a1.69,1.69,0,0,0-3.371-.059L24.024,23.779a31.532,31.532,0,0,1,3.921,10.809,3.91,3.91,0,0,1,.055.641A3.774,3.774,0,0,1,24.229,39a2.968,2.968,0,0,1-2.056-.826A2.812,2.812,0,0,1,20.181,39a2.89,2.89,0,0,1-2.6-1.609l-.207-.412a16.433,16.433,0,0,0-3.078-4.272l1.414-1.414a18.416,18.416,0,0,1,3.452,4.79l.207.412a.9.9,0,0,0,.815.505A.819.819,0,0,0,21,36.181a.778.778,0,0,0-.016-.161l-.41-2.05a8.307,8.307,0,0,0-2.281-4.263l-1.149-1.149A1.892,1.892,0,0,0,15.8,28a.926.926,0,0,0-.912.774l-.313,1.873A42.254,42.254,0,0,0,14,37.565a11.573,11.573,0,0,0,.833,4.324,10.67,10.67,0,0,0,3.07,4.228L21.125,48.8a7.949,7.949,0,0,0,3.905-5.044l1.94.484a9.941,9.941,0,0,1-5.059,6.41L20.166,62H36.92l-.852-11.075A7.652,7.652,0,0,1,29.605,45.5l-1.563-5.21,1.916-.574,1.563,5.21a5.669,5.669,0,0,0,4.993,4.038l4.076-5.706a13.4,13.4,0,0,1,1.43-1.689,11.458,11.458,0,0,0,2.9-4.933,34.635,34.635,0,0,1,3.225-7.658l1.116-1.952A5.6,5.6,0,0,0,50,24.25,1.252,1.252,0,0,0,48.75,23ZM29,59.123V60H27v-.877a32.514,32.514,0,0,0-.97-7.881l1.94-.484A34.537,34.537,0,0,1,29,59.123Z"/></svg>
