<svg id="Capa_1" enable-background="new 0 0 469.333 469.333" height="512" viewBox="0 0 469.333 469.333" width="512" xmlns="http://www.w3.org/2000/svg"><g><g id="Layer_3_119_" fill="#662d91"><path d="m234.667 0c-129.603 0-234.667 105.064-234.667 234.667s105.064 234.667 234.667 234.667 234.666-105.064 234.666-234.667-105.063-234.667-234.666-234.667zm115.75 194.334-24.094 24.094c-.194.23-.271.521-.491.738-.22.218-.508.297-.738.491l-120.646 120.654c-4.628 4.655-10.431 7.967-16.791 9.585l-40.26 10.082c-2.712.676-5.497 1.019-8.292 1.022-8.182.065-16.052-3.137-21.865-8.896-7.798-7.934-10.803-19.409-7.893-30.146l10.093-40.271c1.608-6.363 4.918-12.167 9.574-16.791l145.973-145.98c12.521-13.374 33.489-14.136 46.948-1.707l30.178 30.189c5.773 5.808 8.981 13.686 8.907 21.875-.093 9.425-3.904 18.431-10.603 25.061z"/><path d="m306.865 132.292c-1.829-1.763-4.287-2.723-6.827-2.667-3.766.09-7.345 1.663-9.958 4.375l-17.163 17.161 45.257 45.254 17.167-17.167c2.706-2.617 4.271-6.195 4.354-9.958.065-2.533-.889-4.987-2.647-6.812z"/><path d="m144.105 279.979c-1.922 1.89-3.294 4.267-3.97 6.876l-10.093 40.271c-1.719 4.991.933 10.43 5.924 12.149 2.021.696 4.216.695 6.236-.004l40.26-10.082c2.618-.665 5.003-2.034 6.897-3.959l113.719-113.728-45.248-45.254z"/></g></g></svg>