<?xml version="1.0" encoding="iso-8859-1"?>
<!-- Generator: Adobe Illustrator 18.0.0, SVG Export Plug-In . SVG Version: 6.00 Build 0)  -->
<!DOCTYPE svg PUBLIC "-//W3C//DTD SVG 1.1//EN" "http://www.w3.org/Graphics/SVG/1.1/DTD/svg11.dtd">
<svg version="1.1" id="Capa_1" xmlns="http://www.w3.org/2000/svg" xmlns:xlink="http://www.w3.org/1999/xlink" x="0px" y="0px"
	 viewBox="0 0 359.994 359.994" style="enable-background:new 0 0 359.994 359.994;" xml:space="preserve">
<g>
	<path d="M75.042,53.983c0.226,0,2.768-0.329,2.768-0.329c2.737-0.368,4.658-2.884,4.291-5.621c-0.367-2.737-2.886-4.66-5.621-4.291
		l-2.11,0.286c-2.736,0.375-4.65,2.897-4.275,5.633C70.438,52.167,72.582,53.983,75.042,53.983z"/>
	<path d="M354.994,109.974h-2.602V89.233c0-16.208-9.626-30.787-24.523-37.143c-2.697-1.149-9.295-2.646-10.59-2.936
		c-0.067-0.015-0.134-0.028-0.202-0.04c-74.293-13.36-149.993-15.817-224.995-7.303c-2.744,0.312-4.716,2.788-4.404,5.531
		c0.312,2.745,2.793,4.723,5.532,4.404c74.001-8.397,148.693-5.98,221.995,7.19c2.854,0.639,7.389,1.774,8.741,2.351
		c11.206,4.781,18.446,15.75,18.446,27.944v20.77h-8.795c-2.761,0-5,2.238-5,5s2.239,5,5,5h16.397v45.801l-91.801-14.708v-31.093
		h60.817c2.761,0,5-2.238,5-5s-2.239-5-5-5h-53.399l0-7.648c0-2.485-1.825-4.593-4.284-4.948
		c-52.509-7.6-105.787-7.809-158.354-0.627L98.425,97.4c-2.477,0.339-4.323,2.454-4.323,4.954v7.648H72.986c-2.761,0-5,2.238-5,5
		s2.239,5,5,5h28.815v31.093L10,165.803v-45.801h41.93c2.761,0,5-2.238,5-5s-2.239-5-5-5H17.32V83.393
		c0-11.767,8.498-21.587,19.68-23.643c1.414-0.26,15.691-2.322,20.862-3.154c2.726-0.438,4.581-3.005,4.142-5.73
		c-0.439-2.727-3.001-4.578-5.731-4.143c-5.096,0.82-18.677,2.798-20.273,3.052C19.767,52.353,7.32,66.446,7.32,83.393v26.581H5
		c-2.761,0-5,2.238-5,5v56.694c0,1.464,0.642,2.856,1.756,3.805c1.114,0.95,2.588,1.365,4.035,1.133l101.801-16.31
		c2.425-0.389,4.209-2.482,4.209-4.938v-40.384c0-2.762-2.239-5-5-5h-2.7v-3.257l0.225-0.03
		c50.214-6.861,101.087-6.858,151.285,0.013v3.274h-2.418c-2.761,0-5,2.238-5,5v40.384c0,2.456,1.784,4.549,4.209,4.938
		l101.801,16.31c0.264,0.042,0.528,0.063,0.791,0.063c1.18,0,2.332-0.418,3.244-1.195c1.114-0.949,1.756-2.341,1.756-3.805v-56.694
		C359.994,112.213,357.755,109.974,354.994,109.974z"/>
	<path d="M347.085,227.76H327.65c-45.954,0-83.34-37.386-83.34-83.347l-0.037-26.923c-0.003-2.412-1.728-4.479-4.101-4.912
		c-38.687-7.068-77.959-7.299-116.726-0.683l-3.941,0.673c-2.402,0.41-4.159,2.492-4.159,4.929v34.391
		c-1.831,20.617-11.246,39.723-26.528,53.815c-15.423,14.224-35.48,22.057-56.476,22.057H12.235c-2.761,0-5,2.238-5,5v67.307
		c0,2.762,2.239,5,5,5h24.092v13.074c0,2.762,2.239,5,5,5H70.66c2.761,0,5-2.238,5-5v-13.074h138.537c2.761,0,5-2.238,5-5
		c0-2.762-2.239-5-5-5H70.66c-2.761,0-5,2.238-5,5v13.074H46.327v-13.074c0-2.762-2.239-5-5-5H17.235v-8.926h39.438
		c2.761,0,5-2.238,5-5c0-2.762-2.239-5-5-5H17.235V237.76h15.108c23.515,0,45.979-8.773,63.255-24.705
		c17.172-15.837,27.731-37.329,29.73-60.518c0.012-0.143,0.019-0.286,0.019-0.43v-30.391c36.17-6.148,72.799-6.154,108.933-0.021
		l0.031,22.726c0,51.468,41.872,93.34,93.34,93.34h14.435v38.381h-21.742c-2.761,0-5,2.238-5,5c0,2.762,2.239,5,5,5h21.742v8.926
		h-24.091c-2.761,0-5,2.238-5,5v13.074H293.66v-13.074c0-2.762-2.239-5-5-5h-57.063c-2.761,0-5,2.238-5,5c0,2.762,2.239,5,5,5
		h52.063v13.074c0,2.762,2.239,5,5,5h29.333c2.761,0,5-2.238,5-5v-13.074h24.091c2.761,0,5-2.238,5-5V232.76
		C352.085,229.999,349.846,227.76,347.085,227.76z"/>
	<path d="M66.097,281.141c0,2.762,2.239,5,5,5h210.5c2.761,0,5-2.238,5-5c0-2.762-2.239-5-5-5h-210.5
		C68.335,276.141,66.097,278.38,66.097,281.141z"/>
	<path d="M306.838,286.141c2.761,0,5-2.238,5-5c0-2.762-2.239-5-5-5h-7.656c-2.761,0-5,2.238-5,5c0,2.762,2.239,5,5,5H306.838z"/>
	<path d="M212.601,247.573c-2.071,1.826-2.27,4.986-0.444,7.058c1.826,2.071,4.986,2.271,7.057,0.444
		c12.888-11.363,20.28-27.727,20.28-44.896c0-32.992-26.841-59.833-59.833-59.833c-32.992,0-59.833,26.841-59.833,59.833
		s26.841,59.833,59.833,59.833c8.433,0,16.589-1.721,24.241-5.115c2.524-1.119,3.663-4.073,2.543-6.598
		c-1.12-2.523-4.072-3.665-6.598-2.543c-6.367,2.824-13.159,4.256-20.187,4.256c-27.478,0-49.833-22.355-49.833-49.833
		c0-27.478,22.355-49.833,49.833-49.833c27.479,0,49.833,22.355,49.833,49.833C229.494,224.478,223.336,238.108,212.601,247.573z"/>
	<path d="M178.509,191.547c2.756-0.167,4.855-2.537,4.688-5.294c-0.167-2.756-2.548-4.851-5.293-4.688
		c-15.09,0.915-26.911,13.483-26.911,28.614c0,15.807,12.86,28.667,28.667,28.667c15.807,0,28.667-12.86,28.667-28.667
		c0-8.844-3.989-17.057-10.944-22.533c-2.171-1.709-5.313-1.334-7.022,0.836c-1.708,2.169-1.334,5.314,0.835,7.021
		c4.532,3.567,7.131,8.917,7.131,14.676c0,10.293-8.374,18.667-18.667,18.667c-10.293,0-18.667-8.374-18.667-18.667
		C160.994,200.326,168.687,192.141,178.509,191.547z"/>
</g>
<g>
</g>
<g>
</g>
<g>
</g>
<g>
</g>
<g>
</g>
<g>
</g>
<g>
</g>
<g>
</g>
<g>
</g>
<g>
</g>
<g>
</g>
<g>
</g>
<g>
</g>
<g>
</g>
<g>
</g>
</svg>
